HIERARCHY
ROOT ui
{
	 OFFSET 0 0 0
	 CHANNELS 3 XPosition YPosition Z Position
	 EndSite
	 {
	 OFFSET 0 -1 0
	 }
}
ROOT li
{
	 OFFSET 0 0 0
	 CHANNELS 3 XPosition YPosition Z Position
	 EndSite
	 {
	 OFFSET 0 -1 0
	 }
}
ROOT ul
{
	 OFFSET 0 0 0
	 CHANNELS 3 XPosition YPosition Z Position
	 EndSite
	 {
	 OFFSET 0 -1 0
	 }
}
ROOT ll
{
	 OFFSET 0 0 0
	 CHANNELS 3 XPosition YPosition Z Position
	 EndSite
	 {
	 OFFSET 0 -1 0
	 }
}
ROOT tt
{
	 OFFSET 0 0 0
	 CHANNELS 3 XPosition YPosition Z Position
	 EndSite
	 {
	 OFFSET 0 -1 0
	 }
}
ROOT tb
{
	 OFFSET 0 0 0
	 CHANNELS 3 XPosition YPosition Z Position
	 EndSite
	 {
	 OFFSET 0 -1 0
	 }
}
ROOT td
{
	 OFFSET 0 0 0
	 CHANNELS 3 XPosition YPosition Z Position
	 EndSite
	 {
	 OFFSET 0 -1 0
	 }
}
ROOT v
{
	 OFFSET 0 0 0
	 CHANNELS 3 XPosition YPosition Z Position
	 EndSite
	 {
	 OFFSET 0 -1 0
	 }
}
ROOT bn
{
	 OFFSET 0 0 0
	 CHANNELS 3 XPosition YPosition Z Position
	 EndSite
	 {
	 OFFSET 0 -1 0
	 }
}
MOTION
Frames: 24
Frame Time: 0.002
-0.00537893295288086	-0.004161640167236328	0		0.5311017456054687	-2.64753955078125	0		-1.1265640869140625	-0.1002081298828125	0		-0.6523740234375	-2.68186181640625	0		2.4570185546875	-1.800744873046875	0		3.61041455078125	-0.3889827880859375	0		4.825974609375	0.0849980697631836	0		5.928345703125	0.3702746887207031	0		-0.21555450439453125	5.86465966796875	0		
0.019827600479125976	0.0032264330387115478	0		0.577348876953125	-2.64238037109375	0		-1.1205037841796874	-0.10562762451171875	0		-0.6451004028320313	-2.674281982421875	0		2.461051513671875	-1.812052734375	0		3.58572607421875	-0.3729295349121094	0		4.84217919921875	0.09260883331298828	0		5.915568359375	0.3802469482421875	0		-0.2326856689453125	5.8555283203125	0		
0.011944059371948243	0.0039829668998718265	0		0.5375968627929687	-2.6352431640625	0		-1.0634813232421876	-0.11364484405517578	0		-0.621890380859375	-2.670897705078125	0		2.52300927734375	-1.829045166015625	0		3.60353857421875	-0.39938916015625	0		4.865107421875	0.07711961364746094	0		5.91566455078125	0.38004598999023437	0		-0.24784043884277343	5.8443603515625	0		
-0.005064661979675293	-0.005166988849639892	0		0.5715823364257813	-2.6499677734375	0		-1.1434144287109376	-0.11609368896484375	0		-0.6936788330078125	-2.665429931640625	0		2.482063232421875	-1.8358670654296876	0		3.609548095703125	-0.40772860717773435	0		4.87417626953125	0.0747715835571289	0		5.91065869140625	0.3718811340332031	0		-0.21380189514160156	5.8496181640625	0		
-0.009936837196350098	-0.0014636460542678832	0		0.5088784484863281	-2.6355888671875	0		-1.143330810546875	-0.11646884918212891	0		-0.6555497436523438	-2.666232421875	0		2.528912353515625	-1.8597117919921875	0		3.653359130859375	-0.432517578125	0		4.8791640625	0.06645275115966796	0		5.9117216796875	0.370627197265625	0		-0.21383038330078125	5.84926025390625	0		
0.012186918258666992	0.0029255819320678712	0		0.5547583618164063	-2.65646435546875	0		-1.1432608642578126	-0.11684626770019531	0		-0.6784814453125	-2.670337890625	0		2.535919189453125	-1.8681072998046875	0		3.642618408203125	-0.41668966674804686	0		4.887390625	0.08008368682861328	0		5.91978271484375	0.3702763671875	0		-0.23280197143554687	5.85411572265625	0		
-0.0057701759338378905	0.0017719990015029907	0		0.54697705078125	-2.64572509765625	0		-1.067222412109375	-0.1190922622680664	0		-0.636345947265625	-2.6671884765625	0		2.536	-1.8684298095703125	0		3.65841357421875	-0.4401773681640625	0		4.89724755859375	0.06268252944946288	0		5.90693408203125	0.3791518249511719	0		-0.2318463897705078	5.8527412109375	0		
-0.01372066593170166	0.002504875898361206	0		0.53611767578125	-2.639951171875	0		-1.147200927734375	-0.12054991912841796	0		-0.6851683349609375	-2.65799560546875	0		2.552831787109375	-1.8889488525390625	0		3.686443359375	-0.4418090515136719	0		4.90321533203125	0.05631838607788086	0		5.91596630859375	0.378765869140625	0		-0.24799665832519532	5.8425634765625	0		
-0.013698673248291016	0.002150000095367432	0		0.5611100463867188	-2.6455849609375	0		-1.0792733154296874	-0.12969309997558592	0		-0.642302490234375	-2.674847900390625	0		2.567827880859375	-1.8934464111328124	0		3.671265869140625	-0.4599507446289062	0		4.90323681640625	0.056017669677734375	0		5.9118818359375	0.3695225830078125	0		-0.2139727020263672	5.8478173828125	0		
-0.004793023109436035	-0.007301331996917725	0		0.5249871215820312	-2.65951708984375	0		-1.151212890625	-0.1252315673828125	0		-0.678231201171875	-2.671792724609375	0		2.563775390625	-1.9007247314453124	0		3.696094970703125	-0.4765486145019531	0		4.9240498046875	0.038477363586425783	0		5.9038876953125	0.36932168579101565	0		-0.2319733428955078	5.85167138671875	0		
0.012309151649475098	0.0011627199649810792	0		0.5550316162109376	-2.6581962890625	0		-1.1352806396484374	-0.13176507568359375	0		-0.6612313232421875	-2.674333740234375	0		2.622537841796875	-1.923715087890625	0		3.718949951171875	-0.49011944580078126	0		4.92101611328125	0.03521288299560547	0		5.912873046875	0.3679287719726563	0		-0.18087857055664064	5.86374560546875	0		
-0.00357796311378479	0.011012685775756837	0		0.5321321411132812	-2.651261962890625	0		-1.13314501953125	-0.12012948608398437	0		-0.670097412109375	-2.66456884765625	0		2.62255126953125	-1.9240257568359376	0		3.71806591796875	-0.4804105834960937	0		4.93793310546875	0.027727472305297853	0		5.91187939453125	0.36865585327148437	0		-0.21694813537597657	5.86182275390625	0		
0.017250051498413087	-0.004545392990112304	0		0.5701158447265625	-2.65501025390625	0		-1.07118212890625	-0.12416360473632812	0		-0.6781675415039062	-2.672802490234375	0		2.61645263671875	-1.9342569580078126	0		3.711842529296875	-0.5006328125	0		4.93793310546875	0.027444917678833006	0		5.90387744140625	0.36847174072265626	0		-0.23211660766601563	5.85067236328125	0		
-0.013684874534606933	5.000399947166443E-4	0		0.5151788940429688	-2.651687744140625	0		-1.1512039794921876	-0.12656813049316407	0		-0.6801646728515625	-2.67509130859375	0		2.628381103515625	-1.9426810302734374	0		3.73174853515625	-0.5101398620605468	0		4.9546650390625	0.002981837034225464	0		5.90778955078125	0.36016250610351563	0		-0.23314138793945313	5.851375	0		
0.012328323364257812	-8.87800008058548E-5	0		0.576026611328125	-2.668669677734375	0		-1.151188232421875	-0.12686936950683594	0		-0.6712452392578125	-2.685490966796875	0		2.616296630859375	-1.952818603515625	0		3.73667578125	-0.5184630737304687	0		4.947759765625	0.009802695274353027	0		5.90780224609375	0.35991094970703125	0		-0.19811309814453126	5.85568212890625	0		
-0.013643909454345703	-7.157400250434875E-5	0		0.5340626220703125	-2.669466796875	0		-1.1471160888671874	-0.12320137786865235	0		-0.6691778564453125	-2.683796875	0		2.633323974609375	-1.954271728515625	0		3.75070458984375	-0.5188743896484375	0		4.9536943359375	0.0014912240505218506	0		5.90782568359375	0.35967379760742185	0		-0.21706976318359375	5.8606181640625	0		
0.019473196029663086	0.006290678977966309	0		0.5702775268554687	-2.65613525390625	0		-1.1430416259765626	-0.12051744079589843	0		-0.6691194458007812	-2.68406396484375	0		2.6163896484375	-1.953322998046875	0		3.740487548828125	-0.5419957885742187	0		4.95864306640625	-0.006793155193328858	0		5.9039541015625	0.3674972229003906	0		-0.19812867736816406	5.855138671875	0		
-0.013548571586608887	-5.804089903831482E-4	0		0.5232634887695312	-2.663843505859375	0		-1.14701904296875	-0.1237258071899414	0		-0.6642047729492188	-2.69837060546875	0		2.63140087890625	-1.95872119140625	0		3.76753369140625	-0.5435227661132812	0		4.95869873046875	-0.00700548505783081	0		5.907916015625	0.3592464599609375	0		-0.23217893981933593	5.84927734375	0		
0.012522836685180665	-0.0011051629781723023	0		0.5752598876953126	-2.6726591796875	0		-1.15884228515625	-0.11482755279541015	0		-0.6661480102539062	-2.701581787109375	0		2.629452880859375	-1.961910888671875	0		3.7455322265625	-0.5504780883789062	0		4.968578125	-0.024315275192260743	0		5.90798681640625	0.35905517578125	0		-0.233132568359375	5.85005712890625	0		
-0.01338356876373291	-0.0010240260362625122	0		0.5463810424804687	-2.671540771484375	0		-1.1587496337890626	-0.1150481948852539	0		-0.6232125854492188	-2.717285888671875	0		2.629556640625	-1.9621087646484374	0		3.751536376953125	-0.5587366333007813	0		4.96356884765625	-0.03344175720214844	0		5.9000654296875	0.35796783447265623	0		-0.21696356201171876	5.85966015625	0		
0.012726880073547364	-0.00151630699634552	0		0.5584274291992187	-2.678870849609375	0		-1.1427059326171876	-0.12143293762207032	0		-0.6481409301757812	-2.722203369140625	0		2.629543212890625	-1.97429150390625	0		3.773650146484375	-0.5591633911132813	0		4.961669921875	-0.03459000778198242	0		5.90017578125	0.3578018798828125	0		-0.21492835998535156	5.85543896484375	0		
0.0019290659427642822	0.004426445007324219	0		0.5616295776367187	-2.674084228515625	0		-1.150412841796875	-0.10752992248535156	0		-0.6120313720703126	-2.725795166015625	0		2.650740966796875	-1.96969921875	0		3.76382080078125	-0.5562147216796876	0		4.967701171875	-0.043816368103027345	0		5.8963984375	0.36569195556640627	0		-0.19783383178710937	5.85406396484375	0		
0.016049402236938477	0.001102787971496582	0		0.5737818603515625	-2.675383544921875	0		-1.15430224609375	-0.11165367126464844	0		-0.654920654296875	-2.7304755859375	0		2.632017333984375	-1.9596409912109376	0		3.744752685546875	-0.5761507568359375	0		4.9686865234375	-0.05897502899169922	0		5.89146240234375	0.3576039733886719	0		-0.23176446533203124	5.848283203125	0		
-0.004819039821624756	-0.002808698892593384	0		0.5838600463867187	-2.68464453125	0		-1.0781427001953126	-0.11366568756103515	0		-0.6159686889648438	-2.75106640625	0		2.634241943359375	-1.9558082275390625	0		3.77597265625	-0.5726441040039062	0		4.9688623046875	-0.059114791870117187	0		5.888546875	0.34950048828125	0		-0.24672398376464844	5.8373037109375	0		
